<svg width="19" height="17" viewBox="0 0 19 17" fill="none" xmlns="http://www.w3.org/2000/svg">
<path d="M1.9481 0.696777L16.8117 15.5604M13.5603 12.5467C12.3038 13.2236 10.8836 13.7023 9.37992 13.7023C6.10002 13.7023 3.21741 11.4244 1.56435 9.78105C1.12801 9.34731 0.909878 9.13039 0.771005 8.70464C0.671967 8.40105 0.671939 7.85602 0.771005 7.55234C0.909915 7.12668 1.1285 6.9093 1.56572 6.47473C2.3989 5.64656 3.54419 4.65755 4.89509 3.88015M16.3472 10.575C16.6566 10.3029 16.94 10.0351 17.1943 9.78244L17.197 9.77956C17.6323 9.34684 17.8506 9.12993 17.9892 8.70511C18.0882 8.40152 18.088 7.85621 17.989 7.55262C17.8502 7.12706 17.6318 6.90949 17.1958 6.47603C15.5426 4.83265 12.6598 2.55473 9.37992 2.55473C9.06639 2.55473 8.75648 2.57555 8.45094 2.61463M10.6089 9.52205C10.2813 9.81115 9.85109 9.98654 9.37992 9.98654C8.35377 9.98654 7.52196 9.15473 7.52196 8.12858C7.52196 7.6274 7.7204 7.17276 8.04303 6.83852" stroke="#F7FEFF" stroke-width="1.39346" stroke-linecap="round" stroke-linejoin="round"/>
</svg>
